# xmcd
#
# Track frame offsets:
#	150
#	20531
#	39876
#	58731
#	74765
#	92625
#	96418
#	116272
#	133718
#	151893
#	169736
#	191073
#	194363
#	210012
#
# Disc length: 3073 seconds
#
# Revision: 8
# Processed by: cddbd v1.5.2PL0 Copyright (c) Steve Scherf et al.
# Submitted via: Jack! The Knife 19 Blackthorn
#
DISCID=bc0bff0e
DTITLE=Ligabue - Mondovisione
DYEAR=2013
DGENRE=Rock
TTITLE0=Il Muro Del Suono
TTITLE1=Siamo Chi Siamo
TTITLE2=Il Volume Delle Tue Bugie
TTITLE3=La Neve Se Ne Frega
TTITLE4=Il Sale Della Terra
TTITLE5=Capo Spartivento
TTITLE6=Tu Sei Lei
TTITLE7=Nati Per Vivere (Adesso e Qui)
TTITLE8=La Terra Trema, Amore Mio
TTITLE9=Per Sempre
TTITLE10=Ciò Che Rimane Di Noi
TTITLE11=Il Suono, Il Brutto E Il Cattivo
TTITLE12=Con La Scusa Del Rock'n'Roll
TTITLE13=Sono Sempre I Sogni A Dare Forma Al Mondo
EXTD=Luciano Luisi
EXTT0=Luciano Ligabue
EXTT1=Luciano Ligabue
EXTT2=Luciano Ligabue
EXTT3=Luciano Ligabue
EXTT4=Luciano Ligabue
EXTT5=Luciano Ligabue
EXTT6=Luciano Ligabue
EXTT7=Luciano Ligabue
EXTT8=Luciano Ligabue
EXTT9=Luciano Ligabue
EXTT10=Luciano Ligabue
EXTT11=Luciano Ligabue
EXTT12=Luciano Ligabue
EXTT13=Luciano Ligabue
PLAYORDER=
